#!OML:ASF F:\VICON\USERDATA\INSTALL\rory3\rory3.ASF
:FULLY-SPECIFIED
:DEGREES
296
root 5.18608 18.1624 8.81824 -176.728 48.8656 184.443
lowerback 12.1609 6.66461 5.04462
upperback 1.70734 9.56384 -1.26518
thorax -3.91178 4.7189 -5.5101
lowerneck -17.0623 9.13239 -3.58363
upperneck 43.344 21.9564 1.61441
head 18.7682 9.72076 6.14213
rclavicle -7.10655e-014 2.5842e-015
rhumerus -23.5011 -10.5643 -78.2833
rradius 41.8891
rwrist 6.39641
rhand -11.9842 10.2304
rfingers 7.12502
rthumb 14.0722 -19.2732
lclavicle -7.10655e-014 2.5842e-015
lhumerus -41.255 12.816 76.9507
lradius 30.9906
lwrist -6.87336
lhand -13.1699 30.8459
lfingers 7.12502
lthumb 12.9294 60.4253
rfemur 5.79768 -7.28994 21.0473
rtibia 30.0732
rfoot -6.99131 -10.4911
rtoes -11.9758
lfemur -18.4799 -0.699503 -26.673
ltibia 22.7162
lfoot 5.8868 -0.413764
ltoes 8.12527
297
root 5.08257 18.1743 8.91845 -176.673 49.3407 184.317
lowerback 12.3895 6.65549 5.08207
upperback 1.76607 9.56879 -1.30025
thorax -3.96207 4.72141 -5.59519
lowerneck -17.0887 9.16201 -3.66666
upperneck 43.3088 22.1178 1.40669
head 18.7841 9.73142 6.09339
rclavicle -1.1281e-013 1.37161e-014
rhumerus -23.0341 -10.1085 -78.357
rradius 42.0484
rwrist 6.23279
rhand -12.092 9.84412
rfingers 7.12502
rthumb 13.9683 -19.6666
lclavicle -1.1281e-013 1.37161e-014
lhumerus -40.9702 12.6639 77.204
lradius 31.0325
lwrist -6.81931
lhand -13.2491 30.9121
lfingers 7.12502
lthumb 12.8531 60.4964
rfemur 5.87486 -6.61784 21.1879
rtibia 28.8716
rfoot -8.06556 -10.5612
rtoes -9.85565
lfemur -18.9961 -1.67357 -26.1707
ltibia 22.3403
lfoot 6.50171 -0.245563
ltoes 12.5622
298
root 4.97497 18.1579 9.01747 -176.463 49.6848 184.337
lowerback 12.5846 6.59109 5.29437
upperback 1.78862 9.52135 -1.33425
thorax -4.01047 4.69416 -5.76488
lowerneck -17.102 9.1819 -3.76158
upperneck 43.3411 22.2482 1.30276
head 18.814 9.74262 6.09041
rclavicle -5.29264e-015 -1.94809e-014
rhumerus -22.6171 -9.80907 -78.4383
rradius 42.1113
rwrist 6.16335
rhand -12.2074 9.52746
rfingers 7.12502
rthumb 13.8571 -19.9909
lclavicle -5.29264e-015 -1.94809e-014
lhumerus -40.8046 12.5726 77.3823
lradius 31.242
lwrist -6.71109
lhand -13.5139 30.8183
lfingers 7.12502
lthumb 12.5978 60.4184
rfemur 5.71249 -6.70866 21.3255
rtibia 27.8275
rfoot -7.99825 -10.752
rtoes -14.2729
lfemur -19.4829 -2.12185 -25.7943
ltibia 21.9363
lfoot 6.99407 -1.26375
ltoes 8.45365
299
root 4.86671 18.1395 9.11606 -176.055 49.9303 184.468
lowerback 12.6572 6.53856 5.5308
upperback 1.79405 9.48732 -1.32812
thorax -4.01172 4.67415 -5.89113
lowerneck -17.1326 9.15531 -3.80243
upperneck 43.3341 22.2974 1.12529
head 18.8531 9.719 6.03485
rclavicle -2.22639e-014 4.96962e-015
rhumerus -22.1752 -9.74693 -78.4035
rradius 42.0287
rwrist 6.14012
rhand -12.3529 9.29132
rfingers 7.12502
rthumb 13.7169 -20.2366
lclavicle -2.22639e-014 4.96962e-015
lhumerus -40.5249 12.6728 77.5318
lradius 31.3505
lwrist -6.79002
lhand -13.8344 30.3084
lfingers 7.12502
lthumb 12.2887 59.9274
rfemur 5.25152 -6.99752 21.5355
rtibia 27.0695
rfoot -7.84831 -11.15
rtoes -18.6423
lfemur -20.0778 -2.35362 -25.3566
ltibia 21.4408
lfoot 7.41267 -2.72887
ltoes 3.2509
300
root 4.76159 18.1414 9.21367 -175.762 50.2611 184.442
lowerback 12.6972 6.54598 5.5558
upperback 1.83006 9.50316 -1.31445
thorax -3.99172 4.68383 -5.89468
lowerneck -17.2027 9.10413 -3.89293
upperneck 43.3398 22.3157 0.971203
head 18.8993 9.67582 5.9957
rclavicle -1.02126e-013 9.14409e-015
rhumerus -21.7451 -9.66135 -78.3048
rradius 41.9388
rwrist 5.94303
rhand -12.4273 9.76202
rfingers 7.12502
rthumb 13.6452 -19.7707
lclavicle -1.02126e-013 9.14409e-015
lhumerus -40.0981 12.7769 77.7849
lradius 31.3623
lwrist -6.85849
lhand -14.5226 29.9873
lfingers 7.12502
lthumb 11.6252 59.6448
rfemur 4.70335 -7.00291 21.6023
rtibia 26.5597
rfoot -8.21921 -11.3323
rtoes -18.7548
lfemur -20.6774 -2.71908 -24.854
ltibia 20.907
lfoot 8.04115 -3.80605
ltoes 4.07173
301
root 4.65803 18.148 9.30908 -175.355 50.594 184.525
lowerback 12.6792 6.55903 5.65716
upperback 1.84095 9.53319 -1.28618
thorax -3.95484 4.69906 -5.91928
lowerneck -17.202 9.06191 -4.06915
upperneck 43.3575 22.3285 0.928251
head 18.8955 9.64287 6.00333
rclavicle -1.06101e-014 -7.7526e-015
rhumerus -21.4474 -9.45682 -78.1924
rradius 41.9065
rwrist 5.61939
rhand -12.6476 10.2796
rfingers 7.12502
rthumb 13.4328 -19.2673
lclavicle -1.06101e-014 -7.7526e-015
lhumerus -39.7369 12.7995 78.0402
lradius 31.2445
lwrist -7.39899
lhand -16.8683 28.2014
lfingers 7.12502
lthumb 9.36239 57.9735
rfemur 4.04886 -6.98802 21.6889
rtibia 26.179
rfoot -8.66389 -11.0889
rtoes -16.0211
lfemur -21.2768 -3.00107 -24.2738
ltibia 20.3683
lfoot 8.54187 -5.17046
ltoes 3.9597
302
root 4.55484 18.1538 9.40499 -174.91 50.8591 184.732
lowerback 12.6954 6.55246 5.86499
upperback 1.85924 9.55426 -1.26338
thorax -3.91167 4.70955 -6.00974
lowerneck -17.1449 9.00607 -4.10053
upperneck 43.3418 22.2794 0.824393
head 18.8937 9.60266 5.94723
rclavicle -6.19587e-014 1.21259e-014
rhumerus -21.2325 -9.42365 -78.0998
rradius 41.9021
rwrist 5.41972
rhand -12.8612 10.3791
rfingers 7.12502
rthumb 13.227 -19.1812
lclavicle -6.19587e-014 1.21259e-014
lhumerus -39.4292 12.688 78.289
lradius 30.9119
lwrist -8.95566
lhand -17.2215 26.7348
lfingers 7.12502
lthumb 9.02158 56.5219
rfemur 3.38152 -6.94187 21.8593
rtibia 25.9455
rfoot -9.22038 -10.773
rtoes -13.092
lfemur -21.7772 -3.40058 -23.5341
ltibia 19.7782
lfoot 8.95837 -6.35132
ltoes 4.16115
303
root 4.4533 18.1546 9.49688 -174.559 51.1125 184.845
lowerback 12.6741 6.50382 5.9772
upperback 1.90367 9.5037 -1.26526
thorax -3.8415 4.68841 -6.05871
lowerneck -17.264 8.95199 -4.1983
upperneck 43.3808 22.1734 0.873165
head 18.9272 9.53119 5.97579
rclavicle -1.89144e-013 -6.16232e-015
rhumerus -21.0087 -9.48512 -78.0646
rradius 41.8391
rwrist 5.43926
rhand -12.8955 10.5154
rfingers 7.12502
rthumb 13.194 -19.0471
lclavicle -1.89144e-013 -6.16232e-015
lhumerus -39.0538 12.7408 78.3973
lradius 31.1449
lwrist -8.65591
lhand -16.9982 26.9135
lfingers 7.12502
lthumb 9.23705 56.6912
rfemur 2.65385 -6.81912 22.0088
rtibia 25.8861
rfoot -9.84102 -10.8227
rtoes -13.5311
lfemur -22.2176 -3.71698 -22.8523
ltibia 19.1726
lfoot 9.36855 -7.54484
ltoes 6.14277
304
root 4.3519 18.1534 9.58501 -174.47 51.3912 184.67
lowerback 12.6908 6.43535 5.85395
upperback 1.92548 9.39495 -1.30659
thorax -3.85527 4.63601 -6.02383
lowerneck -17.2981 8.94069 -4.16349
upperneck 43.3885 22.1215 0.832899
head 18.957 9.49412 5.94756
rclavicle -1.6186e-013 2.00773e-014
rhumerus -20.8127 -9.67809 -78.0682
rradius 41.6649
rwrist 5.71009
rhand -12.7845 10.4542
rfingers 7.12502
rthumb 13.3009 -19.1013
lclavicle -1.6186e-013 2.00773e-014
lhumerus -38.8296 13.0575 78.3536
lradius 31.2996
lwrist -8.83118
lhand -17.4375 27.0572
lfingers 7.12502
lthumb 8.81317 56.8532
rfemur 1.90888 -6.86009 21.9274
rtibia 25.8848
rfoot -10.1442 -10.7948
rtoes -15.91
lfemur -22.6269 -3.63808 -22.5115
ltibia 18.7247
lfoot 9.20935 -9.19035
ltoes 6.224
305
root 4.25037 18.1567 9.66907 -174.532 51.7313 184.335
lowerback 12.7484 6.40999 5.61428
upperback 1.89904 9.32801 -1.36339
thorax -3.95217 4.59948 -5.95743
lowerneck -17.1489 8.93287 -3.96082
upperneck 43.4489 22.1576 0.648494
head 19.0293 9.51098 5.84584
rclavicle -4.76462e-014 1.66979e-014
rhumerus -20.7606 -9.76146 -78.0369
rradius 41.5446
rwrist 5.83395
rhand -12.6041 9.95335
rfingers 7.12502
rthumb 13.4748 -19.5908
lclavicle -4.76462e-014 1.66979e-014
lhumerus -38.8077 13.4733 78.2113
lradius 31.5499
lwrist -9.25154
lhand -17.514 27.0861
lfingers 7.12502
lthumb 8.73936 56.8852
rfemur 1.15647 -6.93467 21.6586
rtibia 25.981
rfoot -10.4431 -10.3984
rtoes -16.1521
lfemur -22.9434 -3.70632 -22.2147
ltibia 18.4188
lfoot 8.71883 -10.3338
ltoes 5.44865
306
root 4.14827 18.1649 9.75387 -174.27 52.0186 184.401
lowerback 12.8118 6.39774 5.58611
upperback 1.86481 9.31158 -1.31861
thorax -4.03734 4.58541 -5.90626
lowerneck -17.1162 8.88034 -3.98848
upperneck 43.5824 22.1025 0.700717
head 19.0918 9.48328 5.87433
rclavicle 2.28727e-014 1.55052e-014
rhumerus -20.7315 -9.81064 -77.8929
rradius 41.3878
rwrist 5.70529
rhand -12.3769 9.62554
rfingers 7.12502
rthumb 13.6938 -19.9039
lclavicle 2.28727e-014 1.55052e-014
lhumerus -38.8634 13.6055 78.2788
lradius 31.9475
lwrist -9.32178
lhand -17.9002 26.5523
lfingers 7.12502
lthumb 8.3666 56.3666
rfemur 0.304823 -6.98649 21.6717
rtibia 26.2451
rfoot -10.735 -9.9098
rtoes -15.604
lfemur -23.1853 -4.07569 -21.5166
ltibia 18.1579
lfoot 8.28113 -10.9085
ltoes 5.93876
307
root 4.04516 18.1612 9.8418 -173.973 52.2594 184.542
lowerback 12.9117 6.37025 5.61756
upperback 1.85737 9.28606 -1.28423
thorax -4.10415 4.5685 -5.89959
lowerneck -17.1657 8.82292 -4.06495
upperneck 43.7042 21.9818 0.850098
head 19.14 9.42904 5.94287
rclavicle -8.12967e-014 -1.00883e-014
rhumerus -20.6431 -9.96798 -77.7612
rradius 41.1359
rwrist 5.51459
rhand -12.3935 9.99845
rfingers 7.12502
rthumb 13.6778 -19.5321
lclavicle -8.12967e-014 -1.00883e-014
lhumerus -38.8033 13.4714 78.4774
lradius 32.3562
lwrist -8.8679
lhand -18.1506 26.1015
lfingers 7.12502
lthumb 8.125 55.9253
rfemur -0.560433 -7.09103 21.7811
rtibia 26.5668
rfoot -10.8733 -9.60645
rtoes -16.2777
lfemur -23.4632 -4.34599 -20.8396
ltibia 18.0786
lfoot 7.01836 -12.1361
ltoes 2.99536
308
root 3.94289 18.1502 9.92464 -174.011 52.5257 184.437
lowerback 13.0786 6.3425 5.56261
upperback 1.94302 9.25223 -1.31806
thorax -4.11212 4.55632 -5.91751
lowerneck -17.3167 8.7635 -4.01182
upperneck 43.8165 21.8712 0.880429
head 19.2569 9.3682 5.95976
rclavicle -1.10276e-013 2.09966e-014
rhumerus -20.5207 -10.3172 -77.6433
rradius 40.8337
rwrist 5.54666
rhand -12.6741 10.3929
rfingers 7.12502
rthumb 13.4073 -19.1557
lclavicle -1.10276e-013 2.09966e-014
lhumerus -38.5943 13.2877 78.7036
lradius 32.7376
lwrist -8.16869
lhand -18.2511 26.4061
lfingers 7.12502
lthumb 8.02795 56.2337
rfemur -1.24131 -7.24084 21.6955
rtibia 26.859
rfoot -10.9048 -9.50058
rtoes -17.4072
lfemur -23.6187 -4.24184 -20.498
ltibia 18.243
lfoot 4.92859 -14.1048
ltoes -3.07868
